<svg width="42" height="41" viewBox="0 0 42 41" fill="none" xmlns="http://www.w3.org/2000/svg">
<path d="M36.2116 4.48291H6.75251C6.04405 4.48291 5.47168 5.05528 5.47168 5.76374V35.2229C5.47168 35.9313 6.04405 36.5037 6.75251 36.5037H36.2116C36.9201 36.5037 37.4925 35.9313 37.4925 35.2229V5.76374C37.4925 5.05528 36.9201 4.48291 36.2116 4.48291ZM14.9698 31.7686H10.2188V16.4867H14.9698V31.7686ZM12.5963 14.3973C12.0517 14.3973 11.5192 14.2358 11.0664 13.9332C10.6135 13.6307 10.2606 13.2006 10.0521 12.6974C9.84371 12.1942 9.78917 11.6405 9.89543 11.1063C10.0017 10.5721 10.264 10.0815 10.6491 9.69634C11.0342 9.31121 11.5249 9.04894 12.0591 8.94268C12.5932 8.83643 13.1469 8.89096 13.6501 9.09939C14.1533 9.30782 14.5834 9.66078 14.886 10.1136C15.1886 10.5665 15.3501 11.0989 15.3501 11.6436C15.3461 13.1645 14.1133 14.3973 12.5963 14.3973ZM32.7574 31.7686H28.0103V24.3358C28.0103 22.5626 27.9783 20.2852 25.5407 20.2852C23.0711 20.2852 22.6909 22.2144 22.6909 24.2077V31.7686H17.9478V16.4867H22.5027V18.5761H22.5668C23.1992 17.3753 24.7482 16.1065 27.0617 16.1065C31.8728 16.1065 32.7574 19.2725 32.7574 23.3872V31.7686Z" fill="#2091F9"/>
</svg>
