<svg width="42" height="41" viewBox="0 0 42 41" fill="none" xmlns="http://www.w3.org/2000/svg">
<path d="M36.2114 4.48291H6.75227C6.04381 4.48291 5.47144 5.05528 5.47144 5.76374V35.2229C5.47144 35.9313 6.04381 36.5037 6.75227 36.5037H36.2114C36.9198 36.5037 37.4922 35.9313 37.4922 35.2229V5.76374C37.4922 5.05528 36.9198 4.48291 36.2114 4.48291ZM14.9696 31.7686H10.2185V16.4867H14.9696V31.7686ZM12.5961 14.3973C12.0514 14.3973 11.519 14.2358 11.0661 13.9332C10.6133 13.6307 10.2603 13.2006 10.0519 12.6974C9.84346 12.1942 9.78893 11.6405 9.89518 11.1063C10.0014 10.5721 10.2637 10.0815 10.6488 9.69634C11.034 9.31121 11.5246 9.04894 12.0588 8.94268C12.593 8.83643 13.1467 8.89096 13.6499 9.09939C14.1531 9.30782 14.5832 9.66078 14.8857 10.1136C15.1883 10.5665 15.3498 11.0989 15.3498 11.6436C15.3458 13.1645 14.113 14.3973 12.5961 14.3973ZM32.7571 31.7686H28.0101V24.3358C28.0101 22.5626 27.978 20.2852 25.5405 20.2852C23.0709 20.2852 22.6906 22.2144 22.6906 24.2077V31.7686H17.9475V16.4867H22.5025V18.5761H22.5665C23.1989 17.3753 24.7479 16.1065 27.0614 16.1065C31.8726 16.1065 32.7571 19.2725 32.7571 23.3872V31.7686V31.7686Z" fill="#2091F9"/>
</svg>
