<svg width="92" height="93" viewBox="0 0 92 93" fill="none" xmlns="http://www.w3.org/2000/svg">
<g clip-path="url(#clip0_1_177)">
<circle cx="45.6941" cy="46.4443" r="45.5" fill="#E0F2FE"/>
<g filter="url(#filter0_d_1_177)">
<circle cx="45.9255" cy="46.6758" r="33.2592" fill="white"/>
</g>
<path d="M53.8911 45.5156L42.5781 34.0132V44.7773C42.5781 44.9731 42.6559 45.1609 42.7944 45.2994C42.9328 45.4378 43.1206 45.5156 43.3164 45.5156H53.8911Z" fill="#1877F2"/>
<path d="M38.6406 47.9765V32.7187H23.3828C22.9912 32.7187 22.6156 32.8743 22.3387 33.1512C22.0618 33.4281 21.9062 33.8037 21.9062 34.1953V74.5547C21.9062 74.9463 22.0618 75.3218 22.3387 75.5988C22.6156 75.8757 22.9912 76.0312 23.3828 76.0312H53.8984C54.29 76.0312 54.6656 75.8757 54.9425 75.5988C55.2194 75.3218 55.375 74.9463 55.375 74.5547V49.4531H40.1172C39.7256 49.4531 39.35 49.2975 39.0731 49.0206C38.7962 48.7437 38.6406 48.3682 38.6406 47.9765ZM61.0352 29.7656H71.6098L60.2969 18.2632V29.0273C60.2969 29.2231 60.3747 29.4109 60.5131 29.5494C60.6516 29.6878 60.8394 29.7656 61.0352 29.7656Z" fill="#1877F2"/>
<path d="M57.8359 33.7031C57.4443 33.7031 57.0688 33.5476 56.7918 33.2706C56.5149 32.9937 56.3594 32.6182 56.3594 32.2266V16.9688H37.1641C36.7725 16.9688 36.3969 17.1243 36.12 17.4012C35.8431 17.6781 35.6875 18.0537 35.6875 18.4453V28.7812H40.8702C41.5318 28.7839 42.1862 28.9172 42.7961 29.1736C43.4059 29.4299 43.9591 29.8043 44.4238 30.275L57.8556 43.9332C58.7927 44.884 59.3159 46.1667 59.3113 47.5016V64.2188H71.6172C72.0088 64.2188 72.3844 64.0632 72.6613 63.7863C72.9382 63.5094 73.0938 63.1338 73.0938 62.7422V33.7031H57.8359Z" fill="#1877F2"/>
</g>
<defs>
<filter id="filter0_d_1_177" x="-8.12077" y="3.02299" width="108.093" height="108.093" filterUnits="userSpaceOnUse" color-interpolation-filters="sRGB">
<feFlood flood-opacity="0" result="BackgroundImageFix"/>
<feColorMatrix in="SourceAlpha" type="matrix" values="0 0 0 0 0 0 0 0 0 0 0 0 0 0 0 0 0 0 127 0" result="hardAlpha"/>
<feOffset dy="10.3935"/>
<feGaussianBlur stdDeviation="10.3935"/>
<feColorMatrix type="matrix" values="0 0 0 0 0.109804 0 0 0 0 0.172549 0 0 0 0 0.25098 0 0 0 0.08 0"/>
<feBlend mode="normal" in2="BackgroundImageFix" result="effect1_dropShadow_1_177"/>
<feBlend mode="normal" in="SourceGraphic" in2="effect1_dropShadow_1_177" result="shape"/>
</filter>
<clipPath id="clip0_1_177">
<rect width="91.4629" height="91.4629" fill="white" transform="translate(0.194092 0.944336)"/>
</clipPath>
</defs>
</svg>
