<svg width="76" height="75" viewBox="0 0 76 75" fill="none" xmlns="http://www.w3.org/2000/svg">
<g clip-path="url(#clip0_1_208)">
<circle cx="38.0145" cy="37.2191" r="37.0756" fill="#CFFAFE"/>
<g filter="url(#filter0_d_1_208)">
<circle cx="38.203" cy="37.4076" r="27.1012" fill="white"/>
</g>
<g clip-path="url(#clip1_1_208)">
<path fill-rule="evenodd" clip-rule="evenodd" d="M60.7698 10.8721C61.0132 11.0226 61.2142 11.2329 61.3536 11.4829C61.493 11.7329 61.5662 12.0143 61.5664 12.3006V62.7193C61.5664 63.165 61.3893 63.5925 61.0741 63.9076C60.759 64.2228 60.3315 64.3999 59.8858 64.3999H49.802C49.3563 64.3999 48.9288 64.2228 48.6136 63.9076C48.2985 63.5925 48.1214 63.165 48.1214 62.7193V57.6774H44.7602V62.7193C44.7602 63.165 44.5831 63.5925 44.2679 63.9076C43.9527 64.2228 43.5253 64.3999 43.0795 64.3999H12.8283C12.3826 64.3999 11.9551 64.2228 11.6399 63.9076C11.3248 63.5925 11.1477 63.165 11.1477 62.7193V44.2324C11.148 43.8798 11.2591 43.5363 11.4654 43.2503C11.6717 42.9644 11.9627 42.7506 12.2973 42.6392L31.3152 36.2999V25.7456C31.3152 25.4337 31.402 25.128 31.5658 24.8627C31.7296 24.5973 31.9641 24.3828 32.2429 24.2431L59.1328 10.7981C59.3893 10.6697 59.6744 10.6091 59.9609 10.6221C60.2475 10.635 60.5259 10.7211 60.7698 10.8721V10.8721ZM31.3152 39.8426L14.509 45.4425V61.0386H31.3152V39.8426ZM34.6764 61.0386H41.3989V55.9968C41.3989 55.551 41.576 55.1236 41.8912 54.8084C42.2063 54.4932 42.6338 54.3162 43.0795 54.3162H49.802C50.2478 54.3162 50.6752 54.4932 50.9904 54.8084C51.3056 55.1236 51.4826 55.551 51.4826 55.9968V61.0386H58.2051V15.0198L34.6764 26.7842V61.0386Z" fill="#0085FF"/>
<path d="M17.8701 47.5933H21.2314V50.9546H17.8701V47.5933ZM24.5926 47.5933H27.9539V50.9546H24.5926V47.5933ZM17.8701 54.3158H21.2314V57.6771H17.8701V54.3158ZM24.5926 54.3158H27.9539V57.6771H24.5926V54.3158ZM38.0376 40.8708H41.3988V44.2321H38.0376V40.8708ZM44.7601 40.8708H48.1213V44.2321H44.7601V40.8708ZM38.0376 47.5933H41.3988V50.9546H38.0376V47.5933ZM44.7601 47.5933H48.1213V50.9546H44.7601V47.5933ZM51.4826 40.8708H54.8438V44.2321H51.4826V40.8708ZM51.4826 47.5933H54.8438V50.9546H51.4826V47.5933ZM38.0376 34.1483H41.3988V37.5096H38.0376V34.1483ZM44.7601 34.1483H48.1213V37.5096H44.7601V34.1483ZM51.4826 34.1483H54.8438V37.5096H51.4826V34.1483ZM38.0376 27.4259H41.3988V30.7871H38.0376V27.4259ZM44.7601 27.4259H48.1213V30.7871H44.7601V27.4259ZM51.4826 27.4259H54.8438V30.7871H51.4826V27.4259ZM51.4826 20.7034H54.8438V24.0646H51.4826V20.7034Z" fill="#0085FF"/>
</g>
</g>
<defs>
<filter id="filter0_d_1_208" x="-5.83645" y="1.83727" width="88.0789" height="88.0789" filterUnits="userSpaceOnUse" color-interpolation-filters="sRGB">
<feFlood flood-opacity="0" result="BackgroundImageFix"/>
<feColorMatrix in="SourceAlpha" type="matrix" values="0 0 0 0 0 0 0 0 0 0 0 0 0 0 0 0 0 0 127 0" result="hardAlpha"/>
<feOffset dy="8.46913"/>
<feGaussianBlur stdDeviation="8.46913"/>
<feColorMatrix type="matrix" values="0 0 0 0 0.109804 0 0 0 0 0.172549 0 0 0 0 0.25098 0 0 0 0.08 0"/>
<feBlend mode="normal" in2="BackgroundImageFix" result="effect1_dropShadow_1_208"/>
<feBlend mode="normal" in="SourceGraphic" in2="effect1_dropShadow_1_208" result="shape"/>
</filter>
<clipPath id="clip0_1_208">
<rect width="74.5283" height="74.5283" fill="white" transform="translate(0.938965 0.143555)"/>
</clipPath>
<clipPath id="clip1_1_208">
<rect width="53.7799" height="53.7799" fill="white" transform="translate(11.1477 10.6196)"/>
</clipPath>
</defs>
</svg>
