<svg width="93" height="93" viewBox="0 0 93 93" fill="none" xmlns="http://www.w3.org/2000/svg">
<g clip-path="url(#clip0_1_188)">
<circle cx="46.0642" cy="46.4443" r="45.5" fill="#CFFAFE"/>
<g filter="url(#filter0_d_1_188)">
<path d="M79.5549 46.6758C79.5549 65.0443 64.6642 79.935 46.2956 79.935C27.927 79.935 13.0364 65.0443 13.0364 46.6758C13.0364 28.3072 27.927 13.4165 46.2956 13.4165C64.6642 13.4165 79.5549 28.3072 79.5549 46.6758Z" fill="white"/>
</g>
<path d="M80.0095 49.1632C78.6876 68.0813 62.2699 82.3346 43.3777 81.0079C24.4591 79.6861 10.206 63.2692 11.5327 44.3772C12.8546 25.4591 29.2456 11.2105 48.1642 12.5326C67.0518 13.8326 81.3316 30.2448 80.0095 49.1632Z" fill="url(#paint0_linear_1_188)"/>
<path d="M61.1251 39.719C60.9936 35.1124 57.1579 33.2831 52.1722 32.501L52.6283 26.1294L48.7675 25.8569L48.3362 32.0607C47.317 31.9953 46.2714 31.9346 45.2304 31.9003L45.657 25.6701L41.7962 25.3976L41.3618 31.7381C40.5104 31.6976 39.6854 31.6525 38.8868 31.6026L38.8821 31.5762L33.5344 31.2119L33.2557 35.3462C33.2557 35.3462 36.1145 35.4958 36.0663 35.5315C37.6371 35.6358 38.0782 36.5929 38.1651 37.3946L37.6467 44.6487C37.757 44.6565 37.8937 44.6596 38.0662 44.7109C37.9295 44.7078 37.7927 44.7047 37.6514 44.6751L36.9353 54.8237C36.8295 55.3053 36.4752 56.0759 35.3985 55.9934C35.4342 56.0416 32.5879 55.8081 32.5879 55.8081L31.4888 60.3866L36.5367 60.7494C37.4767 60.8287 38.3856 60.8863 39.2991 60.9704L38.8523 67.3948L42.7132 67.6672L43.1693 61.2956C44.2196 61.3828 45.2698 61.4699 46.2626 61.54L45.8283 67.8805L49.6891 68.1529L50.1359 61.7285C56.6847 61.7993 61.3552 60.4856 62.3256 54.4046C63.1264 49.5246 60.9656 47.1549 57.3301 45.9985C59.6887 45.0107 61.2271 43.0781 61.1251 39.719V39.719ZM54.7422 53.1C54.4168 57.8962 46.2136 56.7826 43.5925 56.5911L44.1872 48.0708C46.8083 48.2623 55.1096 48.0786 54.7422 53.1ZM53.7946 40.9299C53.4786 45.3159 46.6565 44.3128 44.4768 44.1525L45.0216 36.4308C47.2014 36.5911 54.1091 36.3808 53.7946 40.9299Z" fill="white"/>
</g>
<defs>
<filter id="filter0_d_1_188" x="-7.75065" y="3.02299" width="108.093" height="108.093" filterUnits="userSpaceOnUse" color-interpolation-filters="sRGB">
<feFlood flood-opacity="0" result="BackgroundImageFix"/>
<feColorMatrix in="SourceAlpha" type="matrix" values="0 0 0 0 0 0 0 0 0 0 0 0 0 0 0 0 0 0 127 0" result="hardAlpha"/>
<feOffset dy="10.3935"/>
<feGaussianBlur stdDeviation="10.3935"/>
<feColorMatrix type="matrix" values="0 0 0 0 0.109804 0 0 0 0 0.172549 0 0 0 0 0.25098 0 0 0 0.08 0"/>
<feBlend mode="normal" in2="BackgroundImageFix" result="effect1_dropShadow_1_188"/>
<feBlend mode="normal" in="SourceGraphic" in2="effect1_dropShadow_1_188" result="shape"/>
</filter>
<linearGradient id="paint0_linear_1_188" x1="39.7878" y1="12.9484" x2="51.7123" y2="80.5757" gradientUnits="userSpaceOnUse">
<stop stop-color="#1877F2"/>
<stop offset="1" stop-color="#1877F2"/>
</linearGradient>
<clipPath id="clip0_1_188">
<rect width="91.4629" height="91.4629" fill="white" transform="translate(0.564209 0.944336)"/>
</clipPath>
</defs>
</svg>
