<svg width="93" height="93" viewBox="0 0 93 93" fill="none" xmlns="http://www.w3.org/2000/svg">
<g clip-path="url(#clip0_1_169)">
<circle cx="46.324" cy="46.4443" r="45.5" fill="#CFFAFE"/>
<g filter="url(#filter0_d_1_169)">
<circle cx="46.5554" cy="46.6758" r="33.2592" fill="white"/>
</g>
<path d="M40.4757 42.7646H26.7674C26.248 42.7646 25.7499 42.5539 25.3827 42.1789C25.0154 41.8038 24.8091 41.2951 24.8091 40.7646V26.7646C24.8091 26.2342 25.0154 25.7255 25.3827 25.3504C25.7499 24.9754 26.248 24.7646 26.7674 24.7646H40.4757C40.9951 24.7646 41.4932 24.9754 41.8605 25.3504C42.2278 25.7255 42.4341 26.2342 42.4341 26.7646V40.7646C42.4341 41.2951 42.2278 41.8038 41.8605 42.1789C41.4932 42.5539 40.9951 42.7646 40.4757 42.7646Z" fill="#0876DD"/>
<path d="M40.4757 68.7646H26.7674C26.248 68.7646 25.7499 68.5539 25.3827 68.1789C25.0154 67.8038 24.8091 67.2951 24.8091 66.7646V52.7646C24.8091 52.2342 25.0154 51.7255 25.3827 51.3504C25.7499 50.9754 26.248 50.7646 26.7674 50.7646H40.4757C40.9951 50.7646 41.4932 50.9754 41.8605 51.3504C42.2278 51.7255 42.4341 52.2342 42.4341 52.7646V66.7646C42.4341 67.2951 42.2278 67.8038 41.8605 68.1789C41.4932 68.5539 40.9951 68.7646 40.4757 68.7646Z" fill="#0876DD"/>
<path d="M48.3091 26.7646H67.8924V30.7646H48.3091V26.7646Z" fill="#0876DD"/>
<path d="M67.8924 52.7646H48.3091V56.7646H67.8924V52.7646Z" fill="#0876DD"/>
<path d="M67.8924 62.7646H48.3091V66.7646H67.8924V62.7646Z" fill="#0876DD"/>
<path d="M67.8924 36.7646H48.3091V40.7646H67.8924V36.7646Z" fill="#0876DD"/>
</g>
<defs>
<filter id="filter0_d_1_169" x="-7.49089" y="3.02299" width="108.093" height="108.093" filterUnits="userSpaceOnUse" color-interpolation-filters="sRGB">
<feFlood flood-opacity="0" result="BackgroundImageFix"/>
<feColorMatrix in="SourceAlpha" type="matrix" values="0 0 0 0 0 0 0 0 0 0 0 0 0 0 0 0 0 0 127 0" result="hardAlpha"/>
<feOffset dy="10.3935"/>
<feGaussianBlur stdDeviation="10.3935"/>
<feColorMatrix type="matrix" values="0 0 0 0 0.109804 0 0 0 0 0.172549 0 0 0 0 0.25098 0 0 0 0.08 0"/>
<feBlend mode="normal" in2="BackgroundImageFix" result="effect1_dropShadow_1_169"/>
<feBlend mode="normal" in="SourceGraphic" in2="effect1_dropShadow_1_169" result="shape"/>
</filter>
<clipPath id="clip0_1_169">
<rect width="91.4629" height="91.4629" fill="white" transform="translate(0.823975 0.944336)"/>
</clipPath>
</defs>
</svg>
