<svg width="38" height="37" viewBox="0 0 38 37" fill="none" xmlns="http://www.w3.org/2000/svg">
<path d="M12.8131 2.65332C7.50732 2.65332 3.19312 6.85092 3.19312 12.0133V24.9733C3.19312 30.1357 7.50732 34.3333 12.8131 34.3333H26.1331C31.4389 34.3333 35.7531 30.1357 35.7531 24.9733V12.0133C35.7531 6.85092 31.4389 2.65332 26.1331 2.65332H12.8131ZM28.3531 8.41332C29.1671 8.41332 29.8331 9.06132 29.8331 9.85332C29.8331 10.6453 29.1671 11.2933 28.3531 11.2933C27.5391 11.2933 26.8731 10.6453 26.8731 9.85332C26.8731 9.06132 27.5391 8.41332 28.3531 8.41332ZM19.4731 10.5733C23.9649 10.5733 27.6131 14.1229 27.6131 18.4933C27.6131 22.8637 23.9649 26.4133 19.4731 26.4133C14.9813 26.4133 11.3331 22.8637 11.3331 18.4933C11.3331 14.1229 14.9813 10.5733 19.4731 10.5733ZM19.4731 12.0133C15.8027 12.0133 12.8131 14.9221 12.8131 18.4933C12.8131 22.0645 15.8027 24.9733 19.4731 24.9733C23.1435 24.9733 26.1331 22.0645 26.1331 18.4933C26.1331 14.9221 23.1435 12.0133 19.4731 12.0133Z" fill="#1877F2"/>
</svg>
