<svg width="38" height="37" viewBox="0 0 38 37" fill="none" xmlns="http://www.w3.org/2000/svg">
<path d="M12.8134 2.65332C7.50756 2.65332 3.19336 6.85092 3.19336 12.0133V24.9733C3.19336 30.1357 7.50756 34.3333 12.8134 34.3333H26.1334C31.4392 34.3333 35.7534 30.1357 35.7534 24.9733V12.0133C35.7534 6.85092 31.4392 2.65332 26.1334 2.65332H12.8134ZM28.3534 8.41332C29.1674 8.41332 29.8334 9.06132 29.8334 9.85332C29.8334 10.6453 29.1674 11.2933 28.3534 11.2933C27.5394 11.2933 26.8734 10.6453 26.8734 9.85332C26.8734 9.06132 27.5394 8.41332 28.3534 8.41332ZM19.4734 10.5733C23.9652 10.5733 27.6134 14.1229 27.6134 18.4933C27.6134 22.8637 23.9652 26.4133 19.4734 26.4133C14.9816 26.4133 11.3334 22.8637 11.3334 18.4933C11.3334 14.1229 14.9816 10.5733 19.4734 10.5733ZM19.4734 12.0133C15.803 12.0133 12.8134 14.9221 12.8134 18.4933C12.8134 22.0645 15.803 24.9733 19.4734 24.9733C23.1438 24.9733 26.1334 22.0645 26.1334 18.4933C26.1334 14.9221 23.1438 12.0133 19.4734 12.0133Z" fill="#1877F2"/>
</svg>
