<svg width="40" height="34" viewBox="0 0 40 34" fill="none" xmlns="http://www.w3.org/2000/svg">
<path fill-rule="evenodd" clip-rule="evenodd" d="M30.622 18.7327C27.1259 21.7043 21.4576 21.7043 17.9615 18.7327C14.4654 15.761 14.4654 10.943 17.9615 7.97128C21.4576 4.99961 27.1259 4.99961 30.622 7.97128C34.1181 10.943 34.1181 15.761 30.622 18.7327ZM19.1566 21.7265C23.3434 23.5827 28.6299 23.0165 32.1458 20.028C36.4835 16.3409 36.4835 10.363 32.1458 6.67598C27.8081 2.98894 20.7753 2.98894 16.4376 6.67598C12.3459 10.1539 12.1139 15.6703 15.7415 19.3794L7.12449 26.7039L10.2661 29.3743L18.9291 22.0108C19.0283 21.9264 19.1041 21.8297 19.1566 21.7265Z" fill="#0E0202"/>
</svg>
